<svg width="41" height="41" viewBox="0 0 41 41" fill="none" xmlns="http://www.w3.org/2000/svg">
<g clip-path="url(#clip0_28_71)">
<path d="M18.0094 32.2348L17.8406 32.4189L17.6548 32.2348C9.63255 24.3012 4.32944 19.055 4.32944 13.7353C4.32944 10.0538 6.86277 7.29263 10.2406 7.29263C12.8414 7.29263 15.3748 9.13338 16.2699 11.6368H19.4112C20.3063 9.13338 22.8397 7.29263 25.4406 7.29263C28.8183 7.29263 31.3517 10.0538 31.3517 13.7353C31.3517 19.055 26.0486 24.3012 18.0094 32.2348ZM25.4406 3.61113C22.5019 3.61113 19.6814 5.10214 17.8406 7.43989C15.9997 5.10214 13.1792 3.61113 10.2406 3.61113C5.03877 3.61113 0.95166 8.04734 0.95166 13.7353C0.95166 20.6749 6.69388 26.3628 15.3917 34.9591L17.8406 37.3889L20.2894 34.9591C28.9872 26.3628 34.7294 20.6749 34.7294 13.7353C34.7294 8.04734 30.6423 3.61113 25.4406 3.61113Z" fill="white"/>
</g>
<defs>
<clipPath id="clip0_28_71">
<rect width="40" height="40" fill="white" transform="translate(0.95166 0.5)"/>
</clipPath>
</defs>
</svg>
