<svg width="35" height="34" viewBox="0 0 46 45" fill="none" xmlns="http://www.w3.org/2000/svg">
<path d="M6.75127 1.51788L6.32324 3.10378C8.45266 3.67885 10.368 4.4725 12.0781 5.45081C10.2082 6.83597 8.97499 9.20418 8.97499 11.8944C8.97499 13.0891 9.21845 14.2203 9.65236 15.2303C7.73459 17.0202 6.57584 19.5719 6.57584 22.9211C6.57584 29.1332 10.3426 34.4984 15.7912 37.0719L13.0921 43.2559H14.8829L17.3082 37.6998C17.5727 37.7945 17.8399 37.8835 18.1106 37.9652C18.4235 38.2078 18.7422 38.4267 19.0658 38.6233L17.9206 43.256H19.6151L20.5771 39.3607C21.1797 39.5845 21.7937 39.7319 22.414 39.8008V43.2559H24.0567V39.7969C24.7485 39.7173 25.4322 39.5388 26.1006 39.2646L27.086 43.2559H28.7779L27.5966 38.4731C27.8955 38.2778 28.1899 38.0635 28.4787 37.8277C28.7607 37.7338 29.0402 37.6325 29.3169 37.5239L31.8183 43.2558H33.6091L30.8142 36.8518C36.0196 34.2006 39.5804 28.9609 39.5804 22.921C39.5804 19.659 38.4809 17.1536 36.6519 15.3715C37.125 14.3259 37.3933 13.1455 37.3933 11.8945C37.3933 9.21385 36.1691 6.85311 34.3107 5.46584C36.0367 4.46969 37.9539 3.67199 40.0584 3.10369L39.6304 1.51788C37.3224 2.1412 35.2171 3.03356 33.3242 4.1546C30.3285 2.49874 26.5399 1.67925 22.7585 1.68364C19.1631 1.68786 15.5752 2.43731 12.6814 3.92029C10.9037 2.91886 8.9285 2.10587 6.75144 1.51797L6.75127 1.51788ZM22.7591 3.39874C25.9623 3.39488 29.1711 3.98805 31.7313 5.18714C27.7664 7.99015 24.883 11.8844 23.1927 16.4187C21.494 11.8364 18.5661 7.81788 14.3537 4.95599C16.7977 3.9238 19.7757 3.40208 22.7591 3.39839L22.7591 3.39874ZM15.411 9.40809C17.116 9.40809 18.5161 10.8076 18.5161 12.5124C18.5161 14.2175 17.116 15.617 15.411 15.617C13.7059 15.617 12.3056 14.2172 12.3056 12.5121C12.3056 10.8072 13.7059 9.40782 15.411 9.40782V9.40809ZM31.182 9.40809C32.8871 9.40809 34.2872 10.8076 34.2872 12.5124C34.2872 14.2175 32.8871 15.617 31.182 15.617C29.4768 15.617 28.0766 14.2176 28.0766 12.5125C28.0766 10.8076 29.4767 9.40818 31.1818 9.40818L31.182 9.40809ZM21.4809 16.5C21.837 17.4094 22.1421 18.3457 22.397 19.3048L23.1907 22.29L23.9843 19.3048C24.2353 18.3587 24.5406 17.4279 24.8988 16.5169C26.1636 18.404 28.1812 19.627 30.4567 19.627C31.7258 19.627 32.9145 19.2451 33.9379 18.5815C33.586 24.8085 32.2732 29.5437 30.4802 32.7685C28.374 36.5569 25.7034 38.2418 23.1381 38.2033C20.5731 38.1648 17.8817 36.3864 15.7726 32.5718C13.9768 29.3238 12.6648 24.6165 12.3138 18.5066C13.3629 19.2173 14.5943 19.6269 15.9118 19.6269C18.194 19.6269 20.217 18.3964 21.4809 16.4997V16.5ZM10.4712 16.6887C10.5092 16.7423 10.5471 16.7959 10.5863 16.8483C10.7766 23.9969 12.2026 29.5095 14.3351 33.3666C14.6445 33.9274 14.983 34.4716 15.3492 34.997C11.0671 32.513 8.21843 28.0278 8.21843 22.9214C8.21843 20.1066 9.02931 18.1327 10.4712 16.6888L10.4712 16.6887ZM35.8084 16.8142C37.1734 18.2465 37.9377 20.1874 37.9377 22.9214C37.9377 27.8758 35.2556 32.2451 31.1852 34.7694C31.4443 34.3781 31.6881 33.977 31.916 33.5668C34.0397 29.7471 35.4605 24.2373 35.6626 17.0018C35.7118 16.9397 35.7612 16.8779 35.8085 16.8142H35.8084ZM14.9348 22.0043C14.6049 22.5548 14.399 23.2814 14.399 24.0469C14.399 25.8104 15.462 27.2035 16.7562 27.2035C17.8575 27.2035 18.8088 26.1853 19.0598 24.7896C18.6474 25.1497 18.1394 25.3468 17.6135 25.3468C16.209 25.3468 15.0275 23.8864 14.9348 22.0043ZM31.2747 22.222C31.1819 24.104 30.0006 25.5645 28.596 25.5645C28.07 25.5645 27.5622 25.3674 27.1495 25.0073C27.4007 26.403 28.3519 27.4213 29.4532 27.4213C30.7474 27.4213 31.7568 26.0282 31.7568 24.2646C31.7568 23.4991 31.6045 22.7725 31.2748 22.222H31.2746H31.2747ZM25.234 24.7682C24.9255 25.919 23.9765 26.8055 23.078 26.8055C22.2005 26.8055 21.2666 25.9216 20.9736 24.8274C20.9022 25.1259 20.8197 25.4452 20.8197 25.7762C20.8197 27.4659 21.8383 28.8005 23.0783 28.8005C24.3182 28.8005 25.3368 27.4659 25.3368 25.7762C25.3368 25.4259 25.3139 25.0819 25.2341 24.7681H25.234V24.7682ZM28.3137 30.631C28.0117 32.0858 27.0649 33.181 25.9011 33.181C25.1768 33.181 24.5166 32.7767 24.0532 32.1135C24.1181 33.7242 25.1136 35.0193 26.3118 35.0193C27.5516 35.0193 28.5702 33.6252 28.5702 31.9356C28.5702 31.4604 28.4557 31.0323 28.3136 30.631L28.3137 30.631ZM18.1503 30.7494C18.0366 31.1158 17.9963 31.5132 17.9963 31.9357C17.9963 33.6253 19.015 35.0193 20.2549 35.0193C21.4531 35.0193 22.3972 33.7241 22.4621 32.1134C21.9987 32.7765 21.3385 33.1809 20.6142 33.1809C19.479 33.1809 18.4772 32.1495 18.1504 30.7493L18.1503 30.7494Z" fill="white"/>
</svg>
